<?xml version="1.0" encoding="UTF-8" standalone="no"?>
<!-- Created with Inkscape (http://www.inkscape.org/) -->

<svg
   width="40.779839mm"
   height="61.669849mm"
   viewBox="0 0 81.559675 123.3397"
   version="1.1"
   id="svg5"
   inkscape:version="1.1.2 (b8e25be833, 2022-02-05)"
   sodipodi:docname="cockatiel-logo.svg"
   xmlns:inkscape="http://www.inkscape.org/namespaces/inkscape"
   xmlns:sodipodi="http://sodipodi.sourceforge.net/DTD/sodipodi-0.dtd"
   xmlns="http://www.w3.org/2000/svg"
   xmlns:svg="http://www.w3.org/2000/svg">
  <sodipodi:namedview
     id="namedview7"
     pagecolor="#ffffff"
     bordercolor="#666666"
     borderopacity="1.0"
     inkscape:pageshadow="2"
     inkscape:pageopacity="0.0"
     inkscape:pagecheckerboard="0"
     inkscape:document-units="mm"
     showgrid="false"
     inkscape:zoom="1.6998618"
     inkscape:cx="99.419845"
     inkscape:cy="191.19201"
     inkscape:window-width="1858"
     inkscape:window-height="1057"
     inkscape:window-x="-8"
     inkscape:window-y="-8"
     inkscape:window-maximized="1"
     inkscape:current-layer="layer1"
     lock-margins="true"
     fit-margin-top="4"
     fit-margin-left="4"
     fit-margin-right="4"
     fit-margin-bottom="4"
     scale-x="2" />
  <defs
     id="defs2" />
  <g
     inkscape:label="Layer 1"
     inkscape:groupmode="layer"
     id="layer1"
     style="display:inline"
     transform="translate(-41.841545,-71.619202)" />
  <g
     inkscape:groupmode="layer"
     id="layer2"
     inkscape:label="lines"
     style="display:inline"
     transform="translate(-41.841545,-71.619202)">
    <path
       style="fill:none;stroke:#000000;stroke-width:0.3;stroke-linecap:butt;stroke-linejoin:miter;stroke-miterlimit:4;stroke-dasharray:none;stroke-opacity:1"
       d="m 55.263323,142.3043 c -0.159386,1.53983 -7.011295,-2.41756 -1.60305,-13.5685 0.313764,-0.64693 0.466421,0.0407 0.700271,0.0489 0.396036,0.0138 1.054865,-1.03231 1.188831,0 0.133966,1.03231 7.40606,3.00539 7.588979,5.91159 0,0 -2.363482,1.65639 -3.59613,3.10525 -1.09929,1.29211 -2.534122,-0.72671 -2.84579,-0.39909 -0.921631,0.96881 -1.197232,2.62306 -1.433111,4.90189 0,0 10e-7,-5e-5 0,-4e-5 z"
       id="path2051"
       sodipodi:nodetypes="ssszcssss" />
    <path
       style="font-variation-settings:normal;display:inline;opacity:1;vector-effect:none;fill:none;fill-opacity:1;stroke:#000000;stroke-width:0.264583px;stroke-linecap:butt;stroke-linejoin:miter;stroke-miterlimit:4;stroke-dasharray:none;stroke-dashoffset:0;stroke-opacity:1;-inkscape-stroke:none;stop-color:#000000;stop-opacity:1"
       d="m 63.322288,137.05333 c -0.182914,-0.77382 -0.19946,-0.80477 -0.183934,-2.35704 0,0 -2.363482,1.65639 -3.59613,3.10525 -1.09929,1.29211 -2.534122,-0.72671 -2.84579,-0.39909 -0.921631,0.96881 -1.110246,2.32011 -1.248863,3.52003 5.986585,6.22562 5.466828,-1.74893 7.874717,-3.86915 z"
       id="path2051-5"
       sodipodi:nodetypes="ccsscc" />
    <path
       style="font-variation-settings:normal;display:inline;fill:none;fill-opacity:1;stroke:#000000;stroke-width:0.3;stroke-linecap:butt;stroke-linejoin:miter;stroke-miterlimit:4;stroke-dasharray:none;stroke-dashoffset:0;stroke-opacity:1;stop-color:#000000"
       d="m 61.419189,155.51176 c -0.273188,0.16974 -1.886263,4.312 -3.181814,5.77904 -1.499096,1.69752 -3.039001,8.28549 -4.623071,8.5286 -2.018837,0.30985 -4.363579,16.98894 -3.398923,16.98936 13.800986,0.006 64.674439,-0.17752 64.689129,-0.27862 2.02136,-13.91589 -5.42663,-17.42128 -5.81012,-18.56238 -0.23722,-0.70585 -3.07134,-4.52539 -1.93129,-7.12472 0.93986,-2.1429 -3.96814,-0.9202 -3.19989,-1.33411 1.72666,-0.93029 2.54445,-3.82358 1.95462,-3.78708 -3.60105,0.22281 -8.354606,-6.71357 -10.698367,-10.58213 -2.314413,-3.82012 -1.541688,-6.1492 -1.541688,-6.1492 -2.631047,-3.458 -5.762059,-8.50766 -6.169178,-9.79534 -1.369147,-4.33047 -8.208137,-8.14617 -9.165395,-8.6724 -2.758189,-1.51624 -1.987907,-2.04649 3.331613,-2.04846 8.092594,-0.003 3.546303,-9.66944 3.34177,-8.99936 -0.72541,2.37656 -10.563657,3.71233 -9.727117,3.39227 3.511328,-1.34344 14.10277,-15.055737 13.49338,-15.202157 -0.267863,-0.06436 -4.296781,4.188107 -8.430617,7.221947 -3.695919,2.71245 -7.580267,4.26125 -7.252962,3.92957 12.901393,-9.446466 11.547009,-28.699526 10.229964,-22.6239 -2.316288,10.685206 -18.582863,27.28462 -18.252822,26.01342 2.045581,-7.87885 17.214367,-26.592968 15.950026,-26.262877 -1.272525,0.332228 -6.963912,7.052286 -6.620514,6.453125 2.316954,-4.042621 3.778519,-14.152117 3.114676,-12.43205 -4.243035,10.223864 -9.48519,19.875005 -13.262408,23.010952 -1.405386,1.98712 -8.023383,15.76309 -8.646633,16.96367 -1.392819,2.68301 -3.092513,2.04333 -2.076644,5.93147 0.34714,1.32864 4.40227,-1.54413 5.01366,-1.97646 1.174334,-0.83041 5.223044,2.18941 6.300666,2.36997 3.380526,0.56643 8.179468,-4.11913 10.058517,-4.06574 4.729917,0.13437 6.714348,7.74673 11.976585,10.00965 1.314251,0.56516 2.998576,10.96105 0.191662,10.83053 -3.932805,-0.18289 3.422005,6.3876 3.514613,7.83335 0.237497,3.7077 -4.998565,-0.77011 -4.500616,0.13091 1.757829,3.18072 -4.720994,4.99939 -5.216582,6.18793 -1.311154,3.14446 -4.196081,-3.99924 -5.827529,-1.27969 -1.831196,3.05252 -6.186462,-0.2219 -9.447042,-1.09925 -1.711091,-0.46041 -4.124477,2.53452 -4.179659,0.70016 -0.0873,-2.90215 -5.833001,-15.78921 -5.971618,-14.58929 5.986585,6.22562 5.466828,-1.74893 7.874717,-3.86915 -0.182914,-0.77382 -0.19946,-0.80477 -0.183934,-2.35704"
       id="path2051-5-6"
       sodipodi:nodetypes="cssssssssssssssssscssssccsssssssssssssccc" />
    <path
       id="path7942"
       style="fill:#000000;fill-opacity:1;fill-rule:evenodd;stroke:#000000;stroke-width:0.96912;stroke-opacity:1"
       d="m 274.97852,473.55859 c -5.60053,-3e-5 -10.14066,4.5401 -10.14063,10.14063 -2e-5,5.60052 4.54011,10.14065 10.14063,10.14062 5.60052,2e-5 10.14064,-4.5401 10.14062,-10.14062 3e-5,-5.60052 -4.5401,-10.14065 -10.14062,-10.14063 z m 4.45216,8.18203 c 0.50654,-0.002 1.74753,0.60311 2.09246,1.5248 0.26687,0.7131 0.53756,2.87088 -0.79853,3.4338 -1.50183,0.63262 -4.4958,-1.8226 -4.1379,-3.41246 0.20395,-0.90591 1.72959,-1.54254 2.84397,-1.54614 z"
       transform="scale(0.26458333)"
       sodipodi:nodetypes="ssssssscss" />
    <path
       style="display:inline;fill:none;stroke:#000000;stroke-width:0.3;stroke-linecap:butt;stroke-linejoin:miter;stroke-miterlimit:4;stroke-dasharray:none;stroke-opacity:1"
       d="m 76.171171,135.80453 c -1.178344,-1.60132 0.686852,-4.6885 2.548767,-5.331 2.429177,-0.83824 5.973639,1.85627 6.906965,3.4243 1.257991,2.11348 2.074857,5.33256 1.245199,4.80569 -0.928383,-0.58956 -1.525818,2.01577 -0.655363,2.91744 1.316703,1.36392 -1.872567,0.23462 -0.997518,1.29898 0.828777,1.00808 -2.609263,-0.44245 -2.927537,-0.65626 -0.635027,-0.4266 -1.442904,1.53732 -2.070042,1.4851 -1.774428,-0.14774 -4.577302,-2.66983 -4.814558,-3.67779 -0.294142,-1.24966 1.712975,-2.97696 0.764087,-4.26646 z"
       id="path44468"
       sodipodi:nodetypes="sassssssss" />
    <path
       style="display:inline;fill:none;stroke:#000000;stroke-width:0.3;stroke-linecap:butt;stroke-linejoin:miter;stroke-miterlimit:4;stroke-dasharray:none;stroke-opacity:1"
       d="m 58.23608,125.49717 c 0.45821,-0.51305 1.797532,0.10792 1.9811,0.57782 0.154227,0.39479 -0.769577,1.17073 -1.306976,1.03182 -0.56319,-0.14557 -1.061604,-1.17578 -0.674124,-1.60964 z"
       id="path49850"
       sodipodi:nodetypes="asaa" />
    <path
       style="fill:none;stroke:#000000;stroke-width:0.264583px;stroke-linecap:butt;stroke-linejoin:miter;stroke-opacity:1"
       d="m 53.544727,125.93054 c 0,0 0.176553,0.87819 0.220122,1.29321 0.04357,0.41503 -0.06879,1.47207 -0.06879,1.47207"
       id="path50635"
       sodipodi:nodetypes="czc" />
    <path
       style="display:inline;fill:none;stroke:#000000;stroke-width:0.3;stroke-linecap:butt;stroke-linejoin:miter;stroke-miterlimit:4;stroke-dasharray:none;stroke-opacity:1"
       d="m 69.393524,130.00968 c 0.541134,1.41245 4.27404,3.15508 6.851304,-0.11006"
       id="path52133"
       sodipodi:nodetypes="cc" />
  </g>
</svg>
