<?xml version="1.0" encoding="UTF-8" standalone="no"?>
<!-- Created with Inkscape (http://www.inkscape.org/) -->

<svg
   width="8.4119663mm"
   height="12.101954mm"
   viewBox="0 0 30.283079 43.567037"
   version="1.1"
   id="svg63090"
   inkscape:version="1.1.2 (b8e25be833, 2022-02-05)"
   sodipodi:docname="cockatiel-logo.svg"
   xmlns:inkscape="http://www.inkscape.org/namespaces/inkscape"
   xmlns:sodipodi="http://sodipodi.sourceforge.net/DTD/sodipodi-0.dtd"
   xmlns="http://www.w3.org/2000/svg"
   xmlns:svg="http://www.w3.org/2000/svg">
  <sodipodi:namedview
     id="namedview63092"
     pagecolor="#ffffff"
     bordercolor="#666666"
     borderopacity="1.0"
     inkscape:pageshadow="2"
     inkscape:pageopacity="0.0"
     inkscape:pagecheckerboard="0"
     inkscape:document-units="mm"
     showgrid="false"
     inkscape:zoom="256"
     inkscape:cx="11.587891"
     inkscape:cy="26.785156"
     inkscape:window-width="1858"
     inkscape:window-height="1057"
     inkscape:window-x="-8"
     inkscape:window-y="-8"
     inkscape:window-maximized="1"
     inkscape:current-layer="layer1"
     lock-margins="true"
     fit-margin-top="0.2"
     fit-margin-left="0.2"
     fit-margin-right="0.2"
     fit-margin-bottom="0.2"
     viewbox-width="29.34082"
     scale-x="3.6" />
  <defs
     id="defs63087" />
  <g
     inkscape:label="Layer 1"
     inkscape:groupmode="layer"
     id="layer1"
     transform="translate(-25.777098,-67.214256)">
    <path
       style="display:inline;fill:none;stroke:#000000;stroke-width:0.72;stroke-linecap:butt;stroke-linejoin:miter;stroke-miterlimit:4;stroke-dasharray:none;stroke-opacity:1"
       d="m 28.534219,100.16128 c -0.08175,0.78984 -3.596313,-1.240036 -0.822255,-6.959705 0.16094,-0.33183 0.239243,0.02087 0.359192,0.02509 0.20314,0.0071 0.541072,-0.529504 0.609789,0 0.06872,0.529504 3.798796,1.541552 3.892621,3.032234 0,0 -1.2123,0.849621 -1.844564,1.592787 -0.563859,0.662764 -1.299831,-0.372752 -1.459695,-0.204705 -0.472734,0.496933 -0.614098,1.34545 -0.735088,2.514329 z"
       id="path2051"
       sodipodi:nodetypes="ssszcssss"
       inkscape:export-filename="C:\Users\Andrew\projects\cockatiel\cockatiel-logo.png"
       inkscape:export-xdpi="300"
       inkscape:export-ydpi="300" />
    <path
       style="font-variation-settings:normal;display:inline;fill:none;fill-opacity:1;stroke:#000000;stroke-width:0.72;stroke-linecap:butt;stroke-linejoin:miter;stroke-miterlimit:4;stroke-dasharray:none;stroke-dashoffset:0;stroke-opacity:1;stop-color:#000000"
       d="m 32.667916,97.467899 c -0.09382,-0.396917 -0.07254,-2.012694 -0.183647,-1.145748 0,0 -1.123008,0.786362 -1.755272,1.529528 -0.563859,0.662764 -1.299831,-0.372752 -1.459695,-0.204705 -0.472734,0.496933 -0.569479,1.190057 -0.640582,1.805534 3.070709,3.193312 2.804111,-0.897082 4.039191,-1.984609 z"
       id="path2051-5"
       sodipodi:nodetypes="ccssccc"
       inkscape:export-filename="C:\Users\Andrew\projects\cockatiel\cockatiel-logo.png"
       inkscape:export-xdpi="300"
       inkscape:export-ydpi="300" />
    <path
       style="font-variation-settings:normal;display:inline;fill:none;fill-opacity:1;stroke:#000000;stroke-width:0.72;stroke-linecap:butt;stroke-linejoin:miter;stroke-miterlimit:4;stroke-dasharray:none;stroke-dashoffset:0;stroke-opacity:1;stop-color:#000000"
       d="m 31.691757,106.93581 c -0.140126,0.0871 -0.967524,2.21176 -1.632052,2.96424 l 25.06732,0.0102 c 0.482084,-1.09915 -2.007157,-0.71192 -1.613098,-0.92423 0.885658,-0.47717 1.305129,-1.96123 1.002586,-1.9425 -1.847093,0.11428 -4.285341,-3.44361 -5.487529,-5.42793 -1.187137,-1.959447 -0.79078,-3.154105 -0.79078,-3.154105 -1.349548,-1.773718 -2.955542,-4.363848 -3.164367,-5.02434 -0.702278,-2.221233 -4.210213,-4.178427 -4.70122,-4.448346 -1.414762,-0.777728 -1.019659,-1.049709 1.708889,-1.05072 4.150947,-0.0015 1.819011,-4.95976 1.714101,-4.616056 -0.372087,1.219012 -5.418435,1.904171 -4.989347,1.740003 1.801072,-0.689094 7.233755,-7.722563 6.92118,-7.797667 -0.137395,-0.03302 -2.203954,2.148213 -4.324328,3.704366 -1.895754,1.391301 -3.888158,2.185729 -3.720273,2.015599 6.61753,-4.845389 5.922824,-14.720891 5.247272,-11.60451 -1.188098,5.480779 -9.531738,13.99514 -9.362449,13.343102 1.049242,-4.041311 8.829791,-13.640372 8.181271,-13.471057 -0.652719,0.17041 -3.57201,3.617339 -3.395869,3.310011 1.188437,-2.073589 1.938121,-7.259067 1.597614,-6.376791 -2.176386,5.244142 -4.865253,10.194516 -6.802706,11.803044 -0.720867,1.019256 -4.115448,8.085385 -4.435131,8.701201 -0.714422,1.376199 -1.586249,1.048087 -1.065176,3.042437 0.178058,0.681502 2.258063,-0.792033 2.571664,-1.013788 0.602353,-0.425943 2.679064,1.123017 3.231809,1.215631 1.733979,0.290541 4.195508,-2.112831 5.159331,-2.085446 2.426124,0.06892 3.444002,3.973543 6.143168,5.134265 0.674122,0.28989 1.538064,5.622267 0.09831,5.555327 -2.017258,-0.0938 1.755255,3.2764 1.802757,4.01797 0.12182,1.90179 -2.563923,-0.39501 -2.308508,0.0671 0.901646,1.6315 -2.421547,2.56435 -2.675749,3.17398 -0.672533,1.61289 -2.152303,-2.05134 -2.989125,-0.65638 -0.939278,1.56574 -3.173231,-0.11383 -4.845685,-0.56385 -0.877671,-0.23616 -2.115574,1.30004 -2.143879,0.35914 -0.04477,-1.48861 -2.991929,-8.098784 -3.063032,-7.483307 3.070709,3.193317 2.804111,-0.897081 4.039191,-1.984609 -0.09382,-0.396917 -0.102309,-0.412687 -0.09435,-1.208895"
       id="path2051-5-6"
       sodipodi:nodetypes="cccssssssssssscssssccsssssssssssssccc"
       inkscape:export-filename="C:\Users\Andrew\projects\cockatiel\cockatiel-logo.png"
       inkscape:export-xdpi="300"
       inkscape:export-ydpi="300" />
    <path
       id="path7942"
       style="display:inline;fill:#000000;fill-opacity:1;fill-rule:evenodd;stroke:none;stroke-width:0.72;stroke-miterlimit:4;stroke-dasharray:none;stroke-opacity:1"
       d="m 37.506115,91.437046 c -0.760065,-4e-6 -1.376221,0.616151 -1.376217,1.376217 -2e-6,0.760064 0.616153,1.376219 1.376217,1.376215 0.760064,3e-6 1.376218,-0.616151 1.376216,-1.376215 4e-6,-0.760065 -0.616152,-1.37622 -1.376216,-1.376217 z m 1.185848,1.358271 c 0.04456,0.406937 -0.592831,1.135859 -0.979017,1.13574 -1.045823,-3.21e-4 -1.28506,-1.237297 -0.694798,-1.653781 0.956072,-0.674597 1.626514,0.08607 1.673815,0.518041 z"
       sodipodi:nodetypes="sssssssss"
       inkscape:export-filename="C:\Users\Andrew\projects\cockatiel\cockatiel-logo.png"
       inkscape:export-xdpi="300"
       inkscape:export-ydpi="300" />
    <path
       style="display:inline;fill:none;stroke:#000000;stroke-width:0.662801;stroke-linecap:butt;stroke-linejoin:miter;stroke-miterlimit:4;stroke-dasharray:none;stroke-opacity:1"
       d="m 39.103502,97.192039 c -0.519104,-0.705441 0.302583,-2.065458 1.122825,-2.348503 1.070143,-0.369276 2.631609,0.817755 3.042775,1.508531 0.554191,0.931067 0.914049,2.349191 0.548555,2.117084 -0.408987,-0.259723 -0.67218,0.888021 -0.288712,1.28524 0.580056,0.600849 -0.824934,0.103356 -0.439442,0.572249 0.365105,0.44409 -1.149477,-0.19492 -1.289689,-0.28911 -0.279753,-0.18793 -0.635652,0.67725 -0.91193,0.65424 -0.7817,-0.065 -2.016471,-1.176154 -2.120991,-1.620198 -0.12958,-0.550521 0.75463,-1.311461 0.336609,-1.879533 z"
       id="path44468"
       sodipodi:nodetypes="sassssssss"
       inkscape:export-filename="C:\Users\Andrew\projects\cockatiel\cockatiel-logo.png"
       inkscape:export-xdpi="300"
       inkscape:export-ydpi="300" />
    <path
       style="display:inline;fill:none;stroke:#000000;stroke-width:0.72;stroke-linecap:butt;stroke-linejoin:miter;stroke-miterlimit:4;stroke-dasharray:none;stroke-opacity:1"
       d="m 30.416768,91.929214 c 0.235031,-0.263159 0.922012,0.05536 1.01617,0.296382 0.07911,0.202501 -0.394741,0.600505 -0.67039,0.529253 -0.288879,-0.07466 -0.54453,-0.603094 -0.34578,-0.825635 z"
       id="path49850"
       sodipodi:nodetypes="asaa"
       inkscape:export-filename="C:\Users\Andrew\projects\cockatiel\cockatiel-logo.png"
       inkscape:export-xdpi="300"
       inkscape:export-ydpi="300" />
    <path
       style="display:inline;fill:none;stroke:#000000;stroke-width:0.72000001;stroke-linecap:butt;stroke-linejoin:miter;stroke-miterlimit:4;stroke-dasharray:none;stroke-opacity:1"
       d="m 27.652697,91.762669 c 0,0 0.09056,0.450452 0.112907,0.663329 0.02235,0.212881 -0.03527,0.755071 -0.03527,0.755071"
       id="path50635"
       sodipodi:nodetypes="czc"
       inkscape:export-filename="C:\Users\Andrew\projects\cockatiel\cockatiel-logo.png"
       inkscape:export-xdpi="300"
       inkscape:export-ydpi="300" />
    <path
       style="display:inline;fill:none;stroke:#000000;stroke-width:0.576;stroke-linecap:round;stroke-linejoin:miter;stroke-miterlimit:4;stroke-dasharray:none;stroke-opacity:1"
       d="m 35.789487,94.078231 c 0.277563,0.72449 2.19229,1.61834 3.514248,-0.05645"
       id="path52133"
       sodipodi:nodetypes="cc"
       inkscape:export-filename="C:\Users\Andrew\projects\cockatiel\cockatiel-logo.png"
       inkscape:export-xdpi="300"
       inkscape:export-ydpi="300" />
  </g>
</svg>
